<?xml version="1.0" encoding="iso-8859-1"?>
<!-- Generator: Adobe Illustrator 19.0.0, SVG Export Plug-In . SVG Version: 6.00 Build 0)  -->
<svg version="1.1" id="Capa_1" xmlns="http://www.w3.org/2000/svg" xmlns:xlink="http://www.w3.org/1999/xlink" x="0px" y="0px"
	 viewBox="0 0 512 512" style="enable-background:new 0 0 512 512;" xml:space="preserve">
<circle style="fill:#2672EB;" cx="256" cy="256" r="256"/>
<path style="fill:#1761BA;" d="M512,256c0-3.839-0.1-7.654-0.268-11.451l-133.15-132.705l-45.995-6.839L253,139.594l-66.979,14.004
	l-63.133,69.215l33.649,33.649l-44.426,43.006l-13.435,86.744l123.571,123.57C233.292,511.238,244.557,512,256,512
	C397.385,512,512,397.385,512,256z"/>
<path style="fill:#FFFFFF;" d="M122.888,222.813c1.158-5.56,2.508-10.824,4.527-16.026c14.293-36.824,39.493-63.242,75.84-78.797
	c18.603-7.962,38.147-11.175,58.352-10.395c1.308,0.051,2.506-0.093,3.706-0.65c17.298-8.034,35.307-13.99,54.026-17.547
	c13.809-2.624,27.688-2.481,41.283,1.607c18.586,5.589,28.615,20.559,27.583,40.413c-0.805,15.482-6.395,33.067-12.389,47.147
	c12.245,23.218,18.377,49.83,16.462,76.017c-0.145,1.98-0.402,5.469-0.495,7.45c-0.561-0.06-132.649-0.013-195.875,0
	c1.3,19.176,10.427,36.886,26.148,47.511c27.871,18.836,66.545,12.679,86.985-13.64c0.565-0.728,1.981-2.708,2.319-3.537h72.703
	c-17.982,44.586-50.029,73.451-96.725,85.109c-30.997,7.739-61.228,4.162-90.184-9.449c-1.465-0.689-2.541-0.586-3.914,0.102
	c-16.227,8.13-33.063,14.548-51.034,17.601c-8.722,1.481-17.479,1.889-26.211-0.082c-13.659-3.085-21.971-11.695-25.675-24.978
	c-2.851-10.222-2.641-20.641-1.542-31.056c1.17-11.09,3.515-21.968,6.592-32.679c1.826-6.357,4.787-12.269,7.631-18.205
	c18.579-38.775,42.226-74.116,71.713-105.476c5.931-6.307,11.961-12.522,18.292-18.426c-7.791,3.375-14.999,7.857-21.797,12.858
	C154.504,189.976,123.813,221.833,122.888,222.813z M319.077,234.617c-0.855-11.284-4.762-23.502-11.688-32.392
	c-18.218-23.384-51.617-30.966-78.271-17.604c-19.29,9.671-30.838,28.261-33.457,49.96c19.647,0,41.967,0,61.613,0
	C277.205,234.582,299.147,234.563,319.077,234.617z M126.44,299.468c-5.402,11.235-10.001,22.258-13.184,33.838
	c-2.343,8.522-3.792,17.146-3.373,26.036c0.614,13.01,8.097,22.31,20.69,25.582c6.29,1.635,12.628,1.571,18.996,0.602
	c11.19-1.702,21.57-5.797,31.651-10.76c1.539-0.757,3.042-1.587,4.801-2.507C157.672,354.847,137.934,330.858,126.44,299.468z
	 M371.969,181.878c0.714-1.925,1.935-4.382,2.59-6.327c3.54-10.511,6.487-21.115,6.187-32.388
	c-0.424-15.877-12.533-24.975-22.711-27.371c-7.612-1.792-15.219-1.132-22.786,0.412c-10.328,2.107-20.097,5.806-29.928,10.471
	C333.605,138.018,355.675,156.402,371.969,181.878z"/>
<g>
	<path style="fill:#E0E0E0;" d="M311.361,302.366c-0.339,0.829-1.754,2.809-2.319,3.537c-12.444,16.023-31.647,24.571-51.056,24.558
		v60.998c9.696-0.211,19.486-1.52,29.354-3.983c46.696-11.659,78.743-40.524,96.725-85.109L311.361,302.366L311.361,302.366z"/>
	<path style="fill:#E0E0E0;" d="M375.816,188.564c5.994-14.08,11.584-31.665,12.389-47.147c1.032-19.853-8.997-34.824-27.583-40.413
		c-13.595-4.088-27.474-4.23-41.283-1.607c-18.719,3.557-36.728,9.512-54.026,17.547c-1.199,0.557-2.398,0.701-3.706,0.65
		c-1.209-0.047-2.415-0.074-3.62-0.091v60.57c18.876,0.243,37.422,8.774,49.403,24.153c6.926,8.89,10.832,21.107,11.688,32.392
		c-19.696-0.054-41.349-0.036-61.091-0.035v37.434c62.699-0.016,133.387-0.029,133.797,0.015c0.092-1.981,0.35-5.47,0.494-7.45
		C394.193,238.394,388.061,211.782,375.816,188.564z M371.969,181.878c-16.294-25.476-38.364-43.861-66.647-55.204
		c9.831-4.664,19.6-8.363,29.928-10.471c7.567-1.544,15.174-2.205,22.786-0.412c10.178,2.397,22.287,11.494,22.711,27.371
		c0.301,11.273-2.646,21.877-6.187,32.388C373.905,177.496,372.684,179.953,371.969,181.878z"/>
</g>
<g>
</g>
<g>
</g>
<g>
</g>
<g>
</g>
<g>
</g>
<g>
</g>
<g>
</g>
<g>
</g>
<g>
</g>
<g>
</g>
<g>
</g>
<g>
</g>
<g>
</g>
<g>
</g>
<g>
</g>
</svg>
